<?xml version="1.0" encoding="utf-8"?>
<!-- Generator: Adobe Illustrator 13.0.0, SVG Export Plug-In . SVG Version: 6.00 Build 14948)  -->
<!DOCTYPE svg PUBLIC "-//W3C//DTD SVG 1.1//EN" "http://www.w3.org/Graphics/SVG/1.1/DTD/svg11.dtd">
<svg version="1.1" id="Layer_1" xmlns="http://www.w3.org/2000/svg" xmlns:xlink="http://www.w3.org/1999/xlink" x="0px" y="0px"
	 width="1914px" height="1075px" viewBox="0 0 1914 1075" enable-background="new 0 0 1914 1075" xml:space="preserve">
<line fill="none" stroke="#000000" x1="840.596" y1="300.875" x2="1051" y2="300.875"/>
<line fill="none" stroke="#000000" x1="764.066" y1="392.398" x2="764.066" y2="465.628"/>
<line fill="none" stroke="#000000" x1="361.441" y1="758.476" x2="361.441" y2="809.183"/>
<line fill="none" stroke="#000000" x1="515.566" y1="392.398" x2="515.566" y2="465.63"/>
<g>
	<path fill="#A4A4CB" stroke="#000000" d="M636.804,751.305c0,13.797-6.109,24.987-13.646,24.987h-196.57
		c-7.536,0-13.644-11.19-13.644-24.987v-72.027c0-13.795,6.107-24.984,13.644-24.984h196.569c7.536,0,13.646,11.189,13.646,24.984
		L636.804,751.305L636.804,751.305z"/>
	<rect x="415.559" y="709.065" fill="none" width="220.435" height="45.051"/>
	<text transform="matrix(1 0 0 1 445.4824 730.3652)" fill="#FFFFFF" font-family="'MyriadPro-Regular'" font-size="30">Data Science</text>
</g>
<rect x="454.967" y="184.118" opacity="0.5" fill="#7488F7" fill-opacity="0.4" enable-background="new    " width="376.35" height="207.878"/>
<g>
	<path fill="#687D9B" stroke="#000000" d="M313.416,752.588c0,13.804-6.108,24.989-13.642,24.989H103.2
		c-7.532,0-13.642-11.187-13.642-24.989v-72.022c0-13.797,6.11-24.98,13.642-24.98h196.574c7.534,0,13.642,11.185,13.642,24.98
		V752.588z"/>
	<rect x="94.748" y="710.351" fill="none" width="220.437" height="45.057"/>
	<text transform="matrix(1 0 0 1 149.8271 731.6504)" fill="#FFFFFF" font-family="'MyriadPro-Regular'" font-size="30">Statistics</text>
</g>
<rect x="292.88" y="694.917" fill="none" width="139.146" height="39.94"/>
<text transform="matrix(1 0 0 1 348.6309 727.8477)" font-family="'MyriadPro-Regular'" font-size="46.382">≤</text>
<rect x="208.05" y="986.367" fill="none" width="359.458" height="51.537"/>
<text transform="matrix(1 0 0 1 223.8828 1008.3213)" fill="#BF0D00" font-family="'MyriadPro-Regular'" font-size="30.9214">Somewhat opinionated!</text>
<g>
	<path fill="#996898" stroke="#000000" d="M563.945,534.987c0,13.795-6.11,24.986-13.644,24.986H353.729
		c-7.534,0-13.643-11.191-13.643-24.986v-72.028c0-13.791,6.108-24.984,13.643-24.984h196.572c7.533,0,13.644,11.193,13.644,24.984
		L563.945,534.987L563.945,534.987z"/>
	<rect x="345.277" y="492.748" fill="none" width="220.436" height="45.052"/>
	<text transform="matrix(1 0 0 1 366.4263 514.0488)" fill="#FFFFFF" font-family="'MyriadPro-Regular'" font-size="30">Data Analytics</text>
</g>
<g>
	<path fill="#770777" stroke="#000000" d="M857.946,533.697c0,13.801-6.11,24.988-13.643,24.988h-196.57
		c-7.536,0-13.647-11.188-13.647-24.988v-72.021c0-13.802,6.112-24.984,13.647-24.984h196.57c7.532,0,13.643,11.183,13.643,24.984
		V533.697z"/>
	<rect x="639.279" y="491.454" fill="none" width="220.436" height="45.057"/>
	<text transform="matrix(1 0 0 1 666.1733 512.7539)" fill="#FFFFFF" font-family="'MyriadPro-Regular'" font-size="30">Data Analysis</text>
</g>
<rect x="432.517" y="545.029" fill="none" width="39.941" height="139.147"/>
<text transform="matrix(0 1 -1 0 439.5273 600.7822)" font-family="'MyriadPro-Regular'" font-size="46.382">≤</text>
<rect x="496.355" y="309.564" fill="none" width="257.503" height="48.619"/>
<rect x="536.15" y="485.626" fill="none" width="139.146" height="39.94"/>
<text transform="matrix(-1 0 0 1 619.5459 518.5576)" font-family="'MyriadPro-Regular'" font-size="46.382">≤</text>
<rect x="456.167" y="202.729" fill="none" width="367.348" height="174.471"/>
<text transform="matrix(1 0 0 1 485.3281 224.0293)" font-family="'MyriadPro-Regular'" font-size="30">One way to differentiate: </text>
<text transform="matrix(1 0 0 1 494.8833 296.0293)" font-family="'MyriadPro-Regular'" font-size="30">Analysis looks into past</text>
<text transform="matrix(1 0 0 1 626.686 332.0293)" font-family="'MyriadPro-Regular'" font-size="30">vs</text>
<text transform="matrix(1 0 0 1 477.5132 368.0293)" font-family="'MyriadPro-Regular'" font-size="30">Analytics looks into future</text>
<g>
	<path fill="#74AF8F" stroke="#000000" d="M1282.464,324.794c0,13.795-6.105,24.983-13.638,24.983h-196.577
		c-7.532,0-13.642-11.188-13.642-24.983v-72.027c0-13.797,6.108-24.985,13.642-24.985h196.577c7.531,0,13.638,11.188,13.638,24.985
		V324.794z"/>
	<rect x="1061.131" y="281.886" fill="none" width="217.772" height="45.051"/>
	<text transform="matrix(1 0 0 1 1063.6895 301.7656)" fill="#FFFFFF" font-family="'MyriadPro-Regular'" font-size="28">My favorite toolkit</text>
</g>
<line fill="none" stroke="#000000" x1="1292.017" y1="234.904" x2="1373.453" y2="183.941"/>
<rect x="918.676" y="675.819" opacity="0.5" fill="#7488F7" fill-opacity="0.4" enable-background="new    " width="482.846" height="145.519"/>
<rect x="919.275" y="698.468" fill="none" width="470.844" height="107.98"/>
<text transform="matrix(1 0 0 1 930.481 719.7676)" font-family="'MyriadPro-Regular'" font-size="30">Means for effective decision making</text>
<text transform="matrix(1 0 0 1 1141.543 755.7676)" font-family="'MyriadPro-Regular'" font-size="30">vs</text>
<text transform="matrix(1 0 0 1 1035.2988 791.7676)" font-family="'MyriadPro-Regular'" font-size="30">Scientific approach</text>
<line fill="none" stroke="#000000" x1="511.188" y1="616.287" x2="1152" y2="616.287"/>
<g>
	<path fill="#D83A6F" stroke="#000000" d="M1636.005,167.801c0,13.797-6.105,24.984-13.642,24.984h-196.569
		c-7.536,0-13.646-11.187-13.646-24.984V95.775c0-13.797,6.109-24.984,13.646-24.984h196.569c7.535,0,13.642,11.188,13.642,24.984
		V167.801z"/>
	<rect x="1411.843" y="125.56" fill="none" width="225.938" height="45.053"/>
	<text transform="matrix(1 0 0 1 1416.8896 146.1504)" fill="#FFFFFF" font-family="'MyriadPro-Regular'" font-size="29">Data Visualization</text>
</g>
<g>
	<path fill="#0D0DCC" stroke="#000000" d="M1636.008,333.013c0,13.798-6.107,24.982-13.645,24.982h-196.566
		c-7.538,0-13.648-11.185-13.648-24.982v-72.026c0-13.798,6.11-24.986,13.648-24.986h196.566c7.536,0,13.645,11.188,13.645,24.986
		V333.013z"/>
	<rect x="1411.339" y="271.864" fill="none" width="224.44" height="63.958"/>
	<text transform="matrix(1 0 0 1 1461.2646 293.1641)" fill="#FFFFFF" font-family="'MyriadPro-Regular'" font-size="30">Predictive </text>
	<text transform="matrix(1 0 0 1 1459.9902 329.1641)" fill="#FFFFFF" font-family="'MyriadPro-Regular'" font-size="30">Modelling</text>
</g>
<g>
	
		<rect x="128.167" y="820.271" opacity="0.5" fill="#7488F7" fill-opacity="0.4" enable-background="new    " width="554.397" height="148.574"/>
	<rect x="138.872" y="847.231" fill="none" width="518.843" height="109.85"/>
	<text transform="matrix(1 0 0 1 218.1611 868.5313)" font-family="'MyriadPro-Regular'" font-size="30">Statistics ≈ Scientific method</text>
	<text transform="matrix(1 0 0 1 385.1392 908.5313)" font-family="'MyriadPro-Regular'" font-size="30">vs</text>
	<text transform="matrix(1 0 0 1 188.4922 948.5313)" font-family="'MyriadPro-Regular'" font-size="30">Data Science ≈ “Greater statistics”</text>
</g>
<line fill="none" stroke="#000000" x1="1289.799" y1="297.571" x2="1385.064" y2="297.571"/>
<g>
	<path opacity="0.4" fill="#EFAB22" stroke="#000000" stroke-dasharray="12" enable-background="new    " d="M1636.004,501.197
		c0,13.796-6.104,24.982-13.638,24.982h-196.567c-7.54,0-13.65-11.188-13.65-24.982v-72.028c0-13.795,6.11-24.981,13.65-24.981
		h196.567c7.533,0,13.638,11.188,13.638,24.981V501.197z"/>
	<rect x="1412.584" y="422.62" fill="none" width="225.194" height="94.059"/>
	<text transform="matrix(1 0 0 1 1468.5723 443.9189)" fill="#FFFFFF" font-family="'MyriadPro-Regular'" font-size="30">Data and </text>
	<text transform="matrix(1 0 0 1 1431.0117 479.9189)" fill="#FFFFFF" font-family="'MyriadPro-Regular'" font-size="30">Dimensionality</text>
	<text transform="matrix(1 0 0 1 1461.1172 515.9189)" fill="#FFFFFF" font-family="'MyriadPro-Regular'" font-size="30">Reduction</text>
</g>
<line fill="none" stroke="#000000" x1="1284.876" y1="357.897" x2="1374.306" y2="405.638"/>
<line fill="none" stroke="#000000" x1="1152.066" y1="616.398" x2="1152.066" y2="674"/>
</svg>
